<svg width="85" height="49" viewBox="0 0 85 49" fill="none" xmlns="http://www.w3.org/2000/svg">
<rect x="0.839996" y="0.5" width="83.5" height="48" rx="4" fill="#ECFDF5"/>
<g clip-path="url(#clip0_1_36)">
<g clip-path="url(#clip1_1_36)">
<g clip-path="url(#clip2_1_36)">
<path d="M29.0141 31.0889C29.0141 31.4039 28.9441 31.7276 28.7953 32.0426C28.6466 32.3576 28.4541 32.655 28.2004 32.9351C27.7716 33.4076 27.2991 33.7488 26.7654 33.9676C26.2404 34.1864 25.6716 34.3001 25.0591 34.3001C24.1666 34.3001 23.2129 34.0901 22.2066 33.6614C21.2003 33.2325 20.1941 32.655 19.1966 31.9289C18.1903 31.1939 17.2366 30.3801 16.3266 29.4788C15.4253 28.5689 14.6116 27.615 13.8853 26.6175C13.1678 25.62 12.5903 24.6225 12.1703 23.6338C11.7503 22.6363 11.5403 21.6826 11.5403 20.7726C11.5403 20.1776 11.6453 19.6088 11.8553 19.0838C12.0653 18.5501 12.3978 18.0601 12.8616 17.6226C13.4216 17.0713 14.0341 16.8001 14.6816 16.8001C14.9266 16.8001 15.1716 16.8526 15.3903 16.9576C15.6178 17.0626 15.8191 17.2201 15.9766 17.4476L18.0066 20.3088C18.1641 20.5276 18.2778 20.7288 18.3566 20.9213C18.4353 21.1051 18.4791 21.2888 18.4791 21.4551C18.4791 21.6651 18.4178 21.8751 18.2953 22.0763C18.1816 22.2776 18.0153 22.4876 17.8053 22.6976L17.1403 23.3888C17.0441 23.4851 17.0003 23.5988 17.0003 23.7388C17.0003 23.8088 17.0091 23.8701 17.0266 23.9401C17.0528 24.0101 17.0791 24.0626 17.0966 24.1151C17.2541 24.4038 17.5253 24.78 17.9103 25.2351C18.3041 25.6901 18.7241 26.1539 19.1791 26.6175C19.6516 27.0813 20.1066 27.51 20.5703 27.9038C21.0253 28.2888 21.4016 28.5513 21.6991 28.7088C21.7429 28.7264 21.7954 28.7526 21.8566 28.7789C21.9266 28.8051 21.9966 28.8138 22.0753 28.8138C22.2241 28.8138 22.3378 28.7613 22.4341 28.665L23.0991 28.0088C23.3179 27.7901 23.5279 27.6239 23.7291 27.5189C23.9304 27.3963 24.1316 27.3351 24.3504 27.3351C24.5166 27.3351 24.6916 27.3701 24.8841 27.4488C25.0766 27.5276 25.2778 27.6413 25.4966 27.7901L28.3929 29.8463C28.6204 30.0038 28.7779 30.1875 28.8741 30.4064C28.9616 30.6251 29.0141 30.8438 29.0141 31.0889Z" fill="#047857"/>
<path d="M25.9775 22.9252C25.9775 22.4002 25.5662 21.5952 24.9538 20.9389C24.3937 20.3352 23.65 19.8627 22.915 19.8627" stroke="#047857" stroke-width="1.785" stroke-linecap="round" stroke-linejoin="round"/>
<path d="M29.04 22.9251C29.04 19.5388 26.3012 16.8001 22.915 16.8001" stroke="#047857" stroke-width="1.785" stroke-linecap="round" stroke-linejoin="round"/>
</g>
</g>
</g>
<path d="M45.1224 19.6755V29.5H43.3391V21.7548L40.9772 22.5354V21.0953L44.9205 19.6755H45.1224ZM53.9954 19.6755V29.5H52.2122V21.7548L49.8503 22.5354V21.0953L53.7936 19.6755H53.9954ZM64.8738 19.7024V20.6714L61.0247 29.5H59.1473L62.9964 21.1021H58.0168V19.7024H64.8738ZM73.9689 25.9268V27.3265H66.9101L66.8361 26.2498L70.9879 19.7024H72.4078L70.8735 22.3066L68.6462 25.9268H73.9689ZM72.8048 19.7024V29.5H71.0216V19.7024H72.8048Z" fill="#047857"/>
<defs>
<clipPath id="clip0_1_36">
<rect width="21" height="21" fill="white" transform="translate(10.84 14)"/>
</clipPath>
<clipPath id="clip1_1_36">
<rect width="21" height="21" fill="white" transform="translate(10.84 14)"/>
</clipPath>
<clipPath id="clip2_1_36">
<rect width="21" height="21" fill="white" transform="translate(10.84 14)"/>
</clipPath>
</defs>
</svg>
