<svg width="211" height="49" viewBox="0 0 211 49" fill="none" xmlns="http://www.w3.org/2000/svg">
<rect x="0.839996" y="0.5" width="210" height="48" rx="4" fill="#ECFDF5"/>
<path d="M25.4728 28.5225V30.5H16.7189V28.8125L20.8586 24.374C21.2746 23.9111 21.6027 23.5039 21.8429 23.1523C22.0832 22.7949 22.256 22.4756 22.3615 22.1943C22.4728 21.9072 22.5285 21.6348 22.5285 21.377C22.5285 20.9902 22.464 20.6592 22.3351 20.3838C22.2062 20.1025 22.0158 19.8857 21.7638 19.7334C21.5177 19.5811 21.213 19.5049 20.8498 19.5049C20.463 19.5049 20.1291 19.5986 19.8478 19.7861C19.5724 19.9736 19.3615 20.2344 19.215 20.5684C19.0744 20.9023 19.0041 21.2803 19.0041 21.7021H16.464C16.464 20.9404 16.6457 20.2432 17.0089 19.6104C17.3722 18.9717 17.8849 18.4648 18.547 18.0898C19.2091 17.709 19.9943 17.5186 20.9025 17.5186C21.799 17.5186 22.5548 17.665 23.1701 17.958C23.7912 18.2451 24.2599 18.6611 24.5763 19.2061C24.8986 19.7451 25.0597 20.3896 25.0597 21.1396C25.0597 21.5615 24.9923 21.9746 24.8576 22.3789C24.7228 22.7773 24.5294 23.1758 24.2775 23.5742C24.0314 23.9668 23.7326 24.3652 23.381 24.7695C23.0294 25.1738 22.6398 25.5928 22.2121 26.0264L19.9884 28.5225H25.4728ZM36.0197 25.7188V27.7051H26.8L26.6769 26.167L32.0119 17.7031H34.0246L31.8449 21.3506L29.1906 25.7188H36.0197ZM34.5695 17.7031V30.5H32.0382V17.7031H34.5695ZM42.963 17.7031L38.2697 31.5986H36.3888L41.0822 17.7031H42.963ZM52.7628 17.7031V19.0654L47.8146 30.5H45.1427L50.091 19.6807H43.7189V17.7031H52.7628Z" fill="#186749"/>
<path d="M67.1994 18.1748H65.3976L65.3878 17.418H67.0236C67.2938 17.418 67.5298 17.3724 67.7316 17.2812C67.9334 17.1901 68.0897 17.0599 68.2003 16.8906C68.3143 16.7181 68.3712 16.513 68.3712 16.2754C68.3712 16.015 68.3208 15.8034 68.2199 15.6406C68.1222 15.4746 67.9709 15.3542 67.7658 15.2793C67.564 15.2012 67.3068 15.1621 66.9943 15.1621H65.6076V21.5H64.6652V14.3906H66.9943C67.3589 14.3906 67.6844 14.4281 67.9709 14.5029C68.2573 14.5745 68.4998 14.6885 68.6984 14.8447C68.9002 14.9977 69.0532 15.193 69.1574 15.4307C69.2615 15.6683 69.3136 15.9531 69.3136 16.2852C69.3136 16.5781 69.2388 16.8434 69.089 17.0811C68.9393 17.3154 68.7309 17.5075 68.464 17.6572C68.2003 17.807 67.8911 17.903 67.5363 17.9453L67.1994 18.1748ZM67.1554 21.5H65.0265L65.5587 20.7334H67.1554C67.4549 20.7334 67.7088 20.6813 67.9171 20.5771C68.1287 20.473 68.2899 20.3265 68.4005 20.1377C68.5112 19.9456 68.5666 19.7194 68.5666 19.459C68.5666 19.1953 68.5194 18.9674 68.425 18.7754C68.3306 18.5833 68.1824 18.4352 67.9806 18.3311C67.7788 18.2269 67.5184 18.1748 67.1994 18.1748H65.8566L65.8664 17.418H67.7023L67.9025 17.6914C68.2443 17.7207 68.534 17.8184 68.7716 17.9844C69.0093 18.1471 69.1899 18.3555 69.3136 18.6094C69.4406 18.8633 69.5041 19.1432 69.5041 19.4492C69.5041 19.8919 69.4064 20.2663 69.2111 20.5723C69.019 20.875 68.7472 21.1061 68.3957 21.2656C68.0441 21.4219 67.6307 21.5 67.1554 21.5ZM72.9513 21.5977C72.5835 21.5977 72.2498 21.5358 71.9503 21.4121C71.6541 21.2852 71.3986 21.1077 71.1837 20.8799C70.9722 20.652 70.8094 20.3818 70.6955 20.0693C70.5815 19.7568 70.5246 19.415 70.5246 19.0439V18.8389C70.5246 18.4092 70.588 18.0267 70.715 17.6914C70.8419 17.3529 71.0145 17.0664 71.2326 16.832C71.4507 16.5977 71.6981 16.4202 71.9748 16.2998C72.2515 16.1794 72.5379 16.1191 72.8341 16.1191C73.2117 16.1191 73.5373 16.1842 73.8107 16.3145C74.0874 16.4447 74.3136 16.627 74.4894 16.8613C74.6652 17.0924 74.7954 17.3659 74.88 17.6816C74.9647 17.9941 75.007 18.3359 75.007 18.707V19.1123H71.0617V18.375H74.1037V18.3066C74.0906 18.0723 74.0418 17.8444 73.9572 17.623C73.8758 17.4017 73.7456 17.2194 73.5666 17.0762C73.3875 16.9329 73.1434 16.8613 72.8341 16.8613C72.6291 16.8613 72.4403 16.9053 72.2677 16.9932C72.0952 17.0778 71.9471 17.2048 71.8234 17.374C71.6997 17.5433 71.6037 17.75 71.5353 17.9941C71.4669 18.2383 71.4328 18.5199 71.4328 18.8389V19.0439C71.4328 19.2946 71.4669 19.5306 71.5353 19.752C71.6069 19.9701 71.7095 20.1621 71.8429 20.3281C71.9796 20.4941 72.144 20.6243 72.3361 20.7188C72.5314 20.8132 72.7528 20.8604 73.0002 20.8604C73.3192 20.8604 73.5893 20.7952 73.8107 20.665C74.0321 20.5348 74.2257 20.3607 74.3918 20.1426L74.9386 20.5771C74.8247 20.7497 74.6798 20.9141 74.5041 21.0703C74.3283 21.2266 74.1118 21.3535 73.8546 21.4512C73.6007 21.5488 73.2996 21.5977 72.9513 21.5977ZM76.965 17.2324V23.5312H76.0568V16.2168H76.8869L76.965 17.2324ZM80.5246 18.8145V18.917C80.5246 19.3011 80.479 19.6576 80.3878 19.9863C80.2967 20.3118 80.1632 20.5951 79.9875 20.8359C79.8149 21.0768 79.6017 21.264 79.3478 21.3975C79.0939 21.5309 78.8026 21.5977 78.4738 21.5977C78.1385 21.5977 77.8423 21.5423 77.5851 21.4316C77.328 21.321 77.1099 21.1598 76.9308 20.9482C76.7518 20.7367 76.6086 20.4827 76.5011 20.1865C76.397 19.8903 76.3253 19.5566 76.2863 19.1855V18.6387C76.3253 18.248 76.3986 17.8981 76.506 17.5889C76.6134 17.2796 76.755 17.016 76.9308 16.7979C77.1099 16.5765 77.3263 16.4089 77.5802 16.2949C77.8341 16.1777 78.1271 16.1191 78.4591 16.1191C78.7912 16.1191 79.0858 16.1842 79.3429 16.3145C79.6001 16.4414 79.8166 16.6237 79.9923 16.8613C80.1681 17.099 80.3 17.3838 80.3878 17.7158C80.479 18.0446 80.5246 18.4108 80.5246 18.8145ZM79.6164 18.917V18.8145C79.6164 18.5508 79.5887 18.3034 79.5334 18.0723C79.478 17.8379 79.3918 17.6328 79.2746 17.457C79.1606 17.278 79.0141 17.138 78.8351 17.0371C78.6561 16.9329 78.4429 16.8809 78.1955 16.8809C77.9676 16.8809 77.769 16.9199 77.5998 16.998C77.4337 17.0762 77.2921 17.182 77.175 17.3154C77.0578 17.4456 76.9617 17.5954 76.8869 17.7646C76.8153 17.9307 76.7615 18.1032 76.7257 18.2822V19.5469C76.7908 19.7747 76.882 19.9896 76.9992 20.1914C77.1164 20.39 77.2726 20.5511 77.4679 20.6748C77.6632 20.7952 77.909 20.8555 78.2052 20.8555C78.4494 20.8555 78.6593 20.805 78.8351 20.7041C79.0141 20.5999 79.1606 20.4583 79.2746 20.2793C79.3918 20.1003 79.478 19.8952 79.5334 19.6641C79.5887 19.4297 79.6164 19.1807 79.6164 18.917ZM84.9093 20.2793V16.2168H85.8175V21.5H84.9533L84.9093 20.2793ZM85.0802 19.166L85.4562 19.1562C85.4562 19.5078 85.4188 19.8333 85.3439 20.1328C85.2723 20.429 85.1551 20.6862 84.9923 20.9043C84.8296 21.1224 84.6164 21.2933 84.3527 21.417C84.089 21.5374 83.7684 21.5977 83.3908 21.5977C83.1336 21.5977 82.8976 21.5602 82.6828 21.4854C82.4712 21.4105 82.2889 21.2949 82.1359 21.1387C81.9829 20.9824 81.8641 20.779 81.7794 20.5283C81.6981 20.2777 81.6574 19.9766 81.6574 19.625V16.2168H82.5607V19.6348C82.5607 19.8724 82.5867 20.0693 82.6388 20.2256C82.6942 20.3786 82.7674 20.5007 82.8586 20.5918C82.953 20.6797 83.0571 20.7415 83.1711 20.7773C83.2882 20.8132 83.4087 20.8311 83.5324 20.8311C83.9165 20.8311 84.2209 20.7578 84.4455 20.6113C84.6701 20.4616 84.8312 20.2614 84.9289 20.0107C85.0298 19.7568 85.0802 19.4753 85.0802 19.166ZM88.1759 14V21.5H87.2677V14H88.1759ZM93.591 20.9531L95.0607 16.2168H96.0275L93.9084 22.3154C93.8595 22.4456 93.7944 22.5856 93.713 22.7354C93.6349 22.8883 93.534 23.0332 93.4103 23.1699C93.2866 23.3066 93.1369 23.4173 92.9611 23.502C92.7886 23.5898 92.5819 23.6338 92.341 23.6338C92.2694 23.6338 92.1782 23.624 92.0675 23.6045C91.9569 23.585 91.8787 23.5687 91.8332 23.5557L91.8283 22.8232C91.8543 22.8265 91.895 22.8298 91.9503 22.833C92.0089 22.8395 92.0496 22.8428 92.0724 22.8428C92.2775 22.8428 92.4516 22.8151 92.5949 22.7598C92.7381 22.7077 92.8586 22.6182 92.9562 22.4912C93.0571 22.3675 93.1434 22.1966 93.215 21.9785L93.591 20.9531ZM92.5119 16.2168L93.8839 20.3184L94.1183 21.2705L93.4689 21.6025L91.5255 16.2168H92.5119ZM98.9669 21.5977C98.5991 21.5977 98.2655 21.5358 97.966 21.4121C97.6697 21.2852 97.4142 21.1077 97.1994 20.8799C96.9878 20.652 96.825 20.3818 96.7111 20.0693C96.5972 19.7568 96.5402 19.415 96.5402 19.0439V18.8389C96.5402 18.4092 96.6037 18.0267 96.7306 17.6914C96.8576 17.3529 97.0301 17.0664 97.2482 16.832C97.4663 16.5977 97.7137 16.4202 97.9904 16.2998C98.2671 16.1794 98.5535 16.1191 98.8498 16.1191C99.2274 16.1191 99.5529 16.1842 99.8263 16.3145C100.103 16.4447 100.329 16.627 100.505 16.8613C100.681 17.0924 100.811 17.3659 100.896 17.6816C100.98 17.9941 101.023 18.3359 101.023 18.707V19.1123H97.0773V18.375H100.119V18.3066C100.106 18.0723 100.057 17.8444 99.9728 17.623C99.8914 17.4017 99.7612 17.2194 99.5822 17.0762C99.4031 16.9329 99.159 16.8613 98.8498 16.8613C98.6447 16.8613 98.4559 16.9053 98.2834 16.9932C98.1108 17.0778 97.9627 17.2048 97.839 17.374C97.7153 17.5433 97.6193 17.75 97.5509 17.9941C97.4826 18.2383 97.4484 18.5199 97.4484 18.8389V19.0439C97.4484 19.2946 97.4826 19.5306 97.5509 19.752C97.6225 19.9701 97.7251 20.1621 97.8586 20.3281C97.9953 20.4941 98.1597 20.6243 98.3517 20.7188C98.547 20.8132 98.7684 20.8604 99.0158 20.8604C99.3348 20.8604 99.605 20.7952 99.8263 20.665C100.048 20.5348 100.241 20.3607 100.407 20.1426L100.954 20.5771C100.84 20.7497 100.695 20.9141 100.52 21.0703C100.344 21.2266 100.127 21.3535 99.8703 21.4512C99.6164 21.5488 99.3153 21.5977 98.9669 21.5977ZM104.289 16.2168V16.9102H101.433V16.2168H104.289ZM102.4 14.9326H103.303V20.1914C103.303 20.3704 103.331 20.5055 103.386 20.5967C103.441 20.6878 103.513 20.748 103.601 20.7773C103.689 20.8066 103.783 20.8213 103.884 20.8213C103.959 20.8213 104.037 20.8148 104.118 20.8018C104.203 20.7855 104.266 20.7725 104.309 20.7627L104.314 21.5C104.242 21.5228 104.148 21.5439 104.03 21.5635C103.916 21.5863 103.778 21.5977 103.615 21.5977C103.394 21.5977 103.191 21.5537 103.005 21.4658C102.819 21.3779 102.671 21.2314 102.561 21.0264C102.453 20.818 102.4 20.5381 102.4 20.1865V14.9326ZM106.257 14V21.5H105.349V14H106.257ZM109.485 16.2168L107.18 18.6826L105.891 20.0205L105.818 19.0586L106.74 17.9551L108.381 16.2168H109.485ZM108.659 21.5L106.775 18.9805L107.243 18.1748L109.724 21.5H108.659ZM113.532 20.5967V17.877C113.532 17.6686 113.49 17.488 113.405 17.335C113.324 17.1787 113.2 17.0583 113.034 16.9736C112.868 16.889 112.663 16.8467 112.419 16.8467C112.191 16.8467 111.991 16.8857 111.819 16.9639C111.649 17.042 111.516 17.1445 111.418 17.2715C111.324 17.3984 111.277 17.5352 111.277 17.6816H110.373C110.373 17.4928 110.422 17.3057 110.52 17.1201C110.617 16.9346 110.757 16.7669 110.94 16.6172C111.125 16.4642 111.347 16.3438 111.604 16.2559C111.864 16.1647 112.154 16.1191 112.473 16.1191C112.857 16.1191 113.195 16.1842 113.488 16.3145C113.785 16.4447 114.016 16.6416 114.182 16.9053C114.351 17.1657 114.436 17.4928 114.436 17.8867V20.3477C114.436 20.5234 114.45 20.7106 114.48 20.9092C114.512 21.1077 114.559 21.2786 114.621 21.4219V21.5H113.679C113.633 21.3958 113.597 21.2575 113.571 21.085C113.545 20.9092 113.532 20.7464 113.532 20.5967ZM113.689 18.2969L113.698 18.9316H112.785C112.528 18.9316 112.299 18.9528 112.097 18.9951C111.895 19.0342 111.726 19.0944 111.589 19.1758C111.452 19.2572 111.348 19.3597 111.277 19.4834C111.205 19.6038 111.169 19.7454 111.169 19.9082C111.169 20.0742 111.207 20.2256 111.281 20.3623C111.356 20.499 111.469 20.6081 111.618 20.6895C111.771 20.7676 111.958 20.8066 112.18 20.8066C112.457 20.8066 112.701 20.748 112.912 20.6309C113.124 20.5137 113.291 20.3704 113.415 20.2012C113.542 20.0319 113.611 19.8675 113.62 19.708L114.006 20.1426C113.983 20.2793 113.921 20.4307 113.82 20.5967C113.72 20.7627 113.584 20.9222 113.415 21.0752C113.249 21.2249 113.051 21.3503 112.819 21.4512C112.592 21.5488 112.334 21.5977 112.048 21.5977C111.69 21.5977 111.376 21.5277 111.106 21.3877C110.839 21.2477 110.63 21.0605 110.481 20.8262C110.334 20.5885 110.261 20.3232 110.261 20.0303C110.261 19.7471 110.316 19.498 110.427 19.2832C110.538 19.0651 110.697 18.8844 110.905 18.7412C111.114 18.5947 111.364 18.484 111.657 18.4092C111.95 18.3343 112.277 18.2969 112.639 18.2969H113.689ZM119.792 20.7578V21.5H115.949V20.7578H119.792ZM119.651 16.8564L116.154 21.5H115.603V20.8359L119.074 16.2168H119.651V16.8564ZM119.25 16.2168V16.9639H115.642V16.2168H119.25ZM121.799 16.2168V21.5H120.891V16.2168H121.799ZM120.822 14.8154C120.822 14.6689 120.866 14.5452 120.954 14.4443C121.045 14.3434 121.179 14.293 121.355 14.293C121.527 14.293 121.659 14.3434 121.75 14.4443C121.845 14.5452 121.892 14.6689 121.892 14.8154C121.892 14.9554 121.845 15.0758 121.75 15.1768C121.659 15.2744 121.527 15.3232 121.355 15.3232C121.179 15.3232 121.045 15.2744 120.954 15.1768C120.866 15.0758 120.822 14.9554 120.822 14.8154ZM126.325 20.0986C126.325 19.9684 126.296 19.848 126.237 19.7373C126.182 19.6234 126.067 19.5208 125.891 19.4297C125.718 19.3353 125.458 19.2539 125.11 19.1855C124.817 19.1237 124.551 19.0505 124.314 18.9658C124.079 18.8812 123.879 18.7786 123.713 18.6582C123.55 18.5378 123.425 18.3962 123.337 18.2334C123.249 18.0706 123.205 17.8802 123.205 17.6621C123.205 17.4538 123.251 17.2568 123.342 17.0713C123.436 16.8857 123.568 16.7214 123.737 16.5781C123.91 16.4349 124.117 16.3226 124.358 16.2412C124.598 16.1598 124.867 16.1191 125.163 16.1191C125.586 16.1191 125.948 16.194 126.247 16.3438C126.547 16.4935 126.776 16.6937 126.936 16.9443C127.095 17.1917 127.175 17.4668 127.175 17.7695H126.272C126.272 17.623 126.228 17.4814 126.14 17.3447C126.055 17.2048 125.93 17.0892 125.764 16.998C125.601 16.9069 125.401 16.8613 125.163 16.8613C124.913 16.8613 124.709 16.9004 124.553 16.9785C124.4 17.0534 124.288 17.1494 124.216 17.2666C124.148 17.3838 124.113 17.5075 124.113 17.6377C124.113 17.7354 124.13 17.8232 124.162 17.9014C124.198 17.9762 124.26 18.0462 124.348 18.1113C124.436 18.1732 124.559 18.2318 124.719 18.2871C124.878 18.3424 125.082 18.3978 125.329 18.4531C125.762 18.5508 126.119 18.668 126.399 18.8047C126.679 18.9414 126.887 19.109 127.024 19.3076C127.16 19.5062 127.229 19.7471 127.229 20.0303C127.229 20.2614 127.18 20.473 127.082 20.665C126.988 20.8571 126.849 21.0231 126.667 21.1631C126.488 21.2998 126.273 21.4072 126.023 21.4854C125.775 21.5602 125.497 21.5977 125.188 21.5977C124.722 21.5977 124.328 21.5146 124.006 21.3486C123.684 21.1826 123.44 20.9678 123.274 20.7041C123.108 20.4404 123.025 20.1621 123.025 19.8691H123.933C123.946 20.1165 124.017 20.3135 124.148 20.46C124.278 20.6032 124.437 20.7057 124.626 20.7676C124.815 20.8262 125.002 20.8555 125.188 20.8555C125.435 20.8555 125.642 20.8229 125.808 20.7578C125.977 20.6927 126.106 20.6032 126.194 20.4893C126.281 20.3753 126.325 20.2451 126.325 20.0986ZM129.319 14V21.5H128.415V14H129.319ZM129.104 18.6582L128.728 18.6436C128.731 18.2822 128.785 17.9486 128.889 17.6426C128.993 17.3333 129.139 17.0648 129.328 16.8369C129.517 16.609 129.742 16.4333 130.002 16.3096C130.266 16.1826 130.557 16.1191 130.876 16.1191C131.137 16.1191 131.371 16.1549 131.579 16.2266C131.788 16.2949 131.965 16.4056 132.111 16.5586C132.261 16.7116 132.375 16.9102 132.453 17.1543C132.531 17.3952 132.57 17.6898 132.57 18.0381V21.5H131.662V18.0283C131.662 17.7516 131.622 17.5303 131.54 17.3643C131.459 17.195 131.34 17.0729 131.184 16.998C131.027 16.9199 130.835 16.8809 130.608 16.8809C130.383 16.8809 130.178 16.9281 129.992 17.0225C129.81 17.1169 129.652 17.2471 129.519 17.4131C129.388 17.5791 129.286 17.7695 129.211 17.9844C129.139 18.196 129.104 18.4206 129.104 18.6582ZM138.596 21.5977C138.228 21.5977 137.894 21.5358 137.595 21.4121C137.299 21.2852 137.043 21.1077 136.828 20.8799C136.617 20.652 136.454 20.3818 136.34 20.0693C136.226 19.7568 136.169 19.415 136.169 19.0439V18.8389C136.169 18.4092 136.233 18.0267 136.36 17.6914C136.486 17.3529 136.659 17.0664 136.877 16.832C137.095 16.5977 137.343 16.4202 137.619 16.2998C137.896 16.1794 138.182 16.1191 138.479 16.1191C138.856 16.1191 139.182 16.1842 139.455 16.3145C139.732 16.4447 139.958 16.627 140.134 16.8613C140.31 17.0924 140.44 17.3659 140.525 17.6816C140.609 17.9941 140.652 18.3359 140.652 18.707V19.1123H136.706V18.375H139.748V18.3066C139.735 18.0723 139.686 17.8444 139.602 17.623C139.52 17.4017 139.39 17.2194 139.211 17.0762C139.032 16.9329 138.788 16.8613 138.479 16.8613C138.274 16.8613 138.085 16.9053 137.912 16.9932C137.74 17.0778 137.592 17.2048 137.468 17.374C137.344 17.5433 137.248 17.75 137.18 17.9941C137.111 18.2383 137.077 18.5199 137.077 18.8389V19.0439C137.077 19.2946 137.111 19.5306 137.18 19.752C137.251 19.9701 137.354 20.1621 137.487 20.3281C137.624 20.4941 137.789 20.6243 137.981 20.7188C138.176 20.8132 138.397 20.8604 138.645 20.8604C138.964 20.8604 139.234 20.7952 139.455 20.665C139.677 20.5348 139.87 20.3607 140.036 20.1426L140.583 20.5771C140.469 20.7497 140.324 20.9141 140.149 21.0703C139.973 21.2266 139.756 21.3535 139.499 21.4512C139.245 21.5488 138.944 21.5977 138.596 21.5977ZM142.61 17.3447V21.5H141.706V16.2168H142.561L142.61 17.3447ZM142.395 18.6582L142.019 18.6436C142.022 18.2822 142.076 17.9486 142.18 17.6426C142.284 17.3333 142.43 17.0648 142.619 16.8369C142.808 16.609 143.033 16.4333 143.293 16.3096C143.557 16.1826 143.848 16.1191 144.167 16.1191C144.428 16.1191 144.662 16.1549 144.87 16.2266C145.079 16.2949 145.256 16.4056 145.402 16.5586C145.552 16.7116 145.666 16.9102 145.744 17.1543C145.822 17.3952 145.861 17.6898 145.861 18.0381V21.5H144.953V18.0283C144.953 17.7516 144.913 17.5303 144.831 17.3643C144.75 17.195 144.631 17.0729 144.475 16.998C144.319 16.9199 144.126 16.8809 143.899 16.8809C143.674 16.8809 143.469 16.9281 143.283 17.0225C143.101 17.1169 142.943 17.2471 142.81 17.4131C142.68 17.5791 142.577 17.7695 142.502 17.9844C142.43 18.196 142.395 18.4206 142.395 18.6582ZM150.564 20.4746V14H151.472V21.5H150.642L150.564 20.4746ZM147.009 18.917V18.8145C147.009 18.4108 147.058 18.0446 147.155 17.7158C147.256 17.3838 147.398 17.099 147.58 16.8613C147.766 16.6237 147.986 16.4414 148.239 16.3145C148.497 16.1842 148.783 16.1191 149.099 16.1191C149.431 16.1191 149.721 16.1777 149.968 16.2949C150.219 16.4089 150.43 16.5765 150.603 16.7979C150.778 17.016 150.917 17.2796 151.018 17.5889C151.119 17.8981 151.189 18.248 151.228 18.6387V19.0879C151.192 19.4753 151.122 19.8236 151.018 20.1328C150.917 20.4421 150.778 20.7057 150.603 20.9238C150.43 21.1419 150.219 21.3096 149.968 21.4268C149.717 21.5407 149.424 21.5977 149.089 21.5977C148.78 21.5977 148.497 21.5309 148.239 21.3975C147.986 21.264 147.766 21.0768 147.58 20.8359C147.398 20.5951 147.256 20.3118 147.155 19.9863C147.058 19.6576 147.009 19.3011 147.009 18.917ZM147.917 18.8145V18.917C147.917 19.1807 147.943 19.4281 147.995 19.6592C148.051 19.8903 148.135 20.0938 148.249 20.2695C148.363 20.4453 148.508 20.5837 148.684 20.6846C148.86 20.7822 149.069 20.8311 149.314 20.8311C149.613 20.8311 149.859 20.7676 150.051 20.6406C150.246 20.5137 150.402 20.346 150.52 20.1377C150.637 19.9294 150.728 19.7031 150.793 19.459V18.2822C150.754 18.1032 150.697 17.9307 150.622 17.7646C150.551 17.5954 150.456 17.4456 150.339 17.3154C150.225 17.182 150.083 17.0762 149.914 16.998C149.748 16.9199 149.551 16.8809 149.323 16.8809C149.076 16.8809 148.863 16.9329 148.684 17.0371C148.508 17.138 148.363 17.278 148.249 17.457C148.135 17.6328 148.051 17.8379 147.995 18.0723C147.943 18.3034 147.917 18.5508 147.917 18.8145ZM153.86 16.2168V21.5H152.951V16.2168H153.86ZM152.883 14.8154C152.883 14.6689 152.927 14.5452 153.015 14.4443C153.106 14.3434 153.239 14.293 153.415 14.293C153.588 14.293 153.72 14.3434 153.811 14.4443C153.905 14.5452 153.952 14.6689 153.952 14.8154C153.952 14.9554 153.905 15.0758 153.811 15.1768C153.72 15.2744 153.588 15.3232 153.415 15.3232C153.239 15.3232 153.106 15.2744 153.015 15.1768C152.927 15.0758 152.883 14.9554 152.883 14.8154ZM162.351 20.7578V21.5H157.697V20.8506L160.027 18.2578C160.313 17.9388 160.534 17.6686 160.691 17.4473C160.85 17.2227 160.961 17.0225 161.023 16.8467C161.088 16.6676 161.12 16.4854 161.12 16.2998C161.12 16.0654 161.071 15.8538 160.974 15.665C160.879 15.473 160.739 15.32 160.554 15.2061C160.368 15.0921 160.144 15.0352 159.88 15.0352C159.564 15.0352 159.301 15.097 159.089 15.2207C158.881 15.3411 158.724 15.5104 158.62 15.7285C158.516 15.9466 158.464 16.1973 158.464 16.4805H157.561C157.561 16.0801 157.649 15.7139 157.824 15.3818C158 15.0498 158.261 14.7861 158.606 14.5908C158.951 14.3923 159.375 14.293 159.88 14.293C160.329 14.293 160.713 14.3727 161.032 14.5322C161.351 14.6885 161.596 14.9098 161.765 15.1963C161.937 15.4795 162.024 15.8115 162.024 16.1924C162.024 16.4007 161.988 16.6123 161.916 16.8271C161.848 17.0387 161.752 17.2503 161.628 17.4619C161.508 17.6735 161.366 17.8818 161.203 18.0869C161.044 18.292 160.873 18.4938 160.691 18.6924L158.786 20.7578H162.351ZM168.122 19.1074V19.8496H162.986V19.3174L166.169 14.3906H166.906L166.115 15.8164L164.011 19.1074H168.122ZM167.131 14.3906V21.5H166.228V14.3906H167.131ZM172.185 14.3906L169.221 22.1104H168.444L171.413 14.3906H172.185ZM177.668 14.3906V14.8984L174.724 21.5H173.772L176.711 15.1328H172.863V14.3906H177.668ZM65.4269 29.2666V33.5H64.5187V28.2168H65.3781L65.4269 29.2666ZM65.2414 30.6582L64.8214 30.6436C64.8247 30.2822 64.8719 29.9486 64.963 29.6426C65.0542 29.3333 65.1893 29.0648 65.3683 28.8369C65.5474 28.609 65.7703 28.4333 66.0373 28.3096C66.3042 28.1826 66.6134 28.1191 66.965 28.1191C67.2124 28.1191 67.4403 28.1549 67.6486 28.2266C67.8569 28.2949 68.0376 28.404 68.1906 28.5537C68.3436 28.7035 68.4624 28.8955 68.547 29.1299C68.6317 29.3643 68.674 29.6475 68.674 29.9795V33.5H67.7707V30.0234C67.7707 29.7467 67.7235 29.5254 67.6291 29.3594C67.5379 29.1934 67.4077 29.0729 67.2384 28.998C67.0692 28.9199 66.8706 28.8809 66.6427 28.8809C66.3758 28.8809 66.1528 28.9281 65.9738 29.0225C65.7947 29.1169 65.6515 29.2471 65.5441 29.4131C65.4367 29.5791 65.3586 29.7695 65.3097 29.9844C65.2641 30.196 65.2414 30.4206 65.2414 30.6582ZM68.6642 30.1602L68.0587 30.3457C68.062 30.056 68.1092 29.7777 68.2003 29.5107C68.2947 29.2438 68.4298 29.0062 68.6056 28.7979C68.7847 28.5895 69.0044 28.4251 69.2648 28.3047C69.5252 28.181 69.8231 28.1191 70.1584 28.1191C70.4416 28.1191 70.6922 28.1566 70.9103 28.2314C71.1317 28.3063 71.3172 28.4219 71.4669 28.5781C71.6199 28.7311 71.7355 28.9281 71.8136 29.1689C71.8918 29.4098 71.9308 29.6963 71.9308 30.0283V33.5H71.0226V30.0186C71.0226 29.7223 70.9754 29.4928 70.881 29.3301C70.7899 29.1641 70.6597 29.0485 70.4904 28.9834C70.3244 28.915 70.1258 28.8809 69.8947 28.8809C69.6961 28.8809 69.5203 28.915 69.3673 28.9834C69.2143 29.0518 69.0858 29.1462 68.9816 29.2666C68.8774 29.3838 68.7977 29.5189 68.7423 29.6719C68.6903 29.8249 68.6642 29.9876 68.6642 30.1602ZM76.4132 32.5967V29.877C76.4132 29.6686 76.3709 29.488 76.2863 29.335C76.2049 29.1787 76.0812 29.0583 75.9152 28.9736C75.7492 28.889 75.5441 28.8467 75.3 28.8467C75.0721 28.8467 74.8719 28.8857 74.6994 28.9639C74.5301 29.042 74.3966 29.1445 74.299 29.2715C74.2046 29.3984 74.1574 29.5352 74.1574 29.6816H73.2541C73.2541 29.4928 73.3029 29.3057 73.4005 29.1201C73.4982 28.9346 73.6382 28.7669 73.8205 28.6172C74.006 28.4642 74.2274 28.3438 74.4845 28.2559C74.7449 28.1647 75.0347 28.1191 75.3537 28.1191C75.7378 28.1191 76.0763 28.1842 76.3693 28.3145C76.6655 28.4447 76.8966 28.6416 77.0627 28.9053C77.2319 29.1657 77.3166 29.4928 77.3166 29.8867V32.3477C77.3166 32.5234 77.3312 32.7106 77.3605 32.9092C77.3931 33.1077 77.4403 33.2786 77.5021 33.4219V33.5H76.5597C76.5141 33.3958 76.4783 33.2575 76.4523 33.085C76.4263 32.9092 76.4132 32.7464 76.4132 32.5967ZM76.5695 30.2969L76.5793 30.9316H75.6662C75.409 30.9316 75.1795 30.9528 74.9777 30.9951C74.7759 31.0342 74.6066 31.0944 74.4699 31.1758C74.3332 31.2572 74.229 31.3597 74.1574 31.4834C74.0858 31.6038 74.05 31.7454 74.05 31.9082C74.05 32.0742 74.0874 32.2256 74.1623 32.3623C74.2371 32.499 74.3494 32.6081 74.4992 32.6895C74.6522 32.7676 74.8393 32.8066 75.0607 32.8066C75.3374 32.8066 75.5815 32.748 75.7931 32.6309C76.0047 32.5137 76.1724 32.3704 76.2961 32.2012C76.423 32.0319 76.4914 31.8675 76.5011 31.708L76.8869 32.1426C76.8641 32.2793 76.8022 32.4307 76.7013 32.5967C76.6004 32.7627 76.4653 32.9222 76.2961 33.0752C76.13 33.2249 75.9315 33.3503 75.7003 33.4512C75.4725 33.5488 75.2153 33.5977 74.9289 33.5977C74.5708 33.5977 74.2567 33.5277 73.9865 33.3877C73.7196 33.2477 73.5112 33.0605 73.3615 32.8262C73.215 32.5885 73.1418 32.3232 73.1418 32.0303C73.1418 31.7471 73.1971 31.498 73.3078 31.2832C73.4184 31.0651 73.578 30.8844 73.7863 30.7412C73.9946 30.5947 74.2453 30.484 74.5382 30.4092C74.8312 30.3343 75.1584 30.2969 75.5197 30.2969H76.5695ZM80.2658 32.6846L81.7111 28.2168H82.6339L80.7345 33.5H80.1291L80.2658 32.6846ZM79.0597 28.2168L80.549 32.709L80.6515 33.5H80.0461L78.132 28.2168H79.0597ZM83.5275 28.2168H84.4357V34.1299C84.4357 34.4521 84.3836 34.7256 84.2794 34.9502C84.1785 35.1748 84.0255 35.3441 83.8205 35.458C83.6186 35.5752 83.3631 35.6338 83.0539 35.6338C82.9725 35.6338 82.8781 35.6257 82.7707 35.6094C82.66 35.5931 82.5672 35.5736 82.4923 35.5508L82.4972 34.8232C82.5591 34.8363 82.6291 34.846 82.7072 34.8525C82.7853 34.8623 82.8537 34.8672 82.9123 34.8672C83.0457 34.8672 83.158 34.8428 83.2492 34.7939C83.3403 34.7451 83.4087 34.667 83.4543 34.5596C83.5031 34.4521 83.5275 34.3089 83.5275 34.1299V28.2168ZM83.4347 26.8154C83.4347 26.6689 83.4803 26.5452 83.5714 26.4443C83.6626 26.3434 83.7944 26.293 83.9669 26.293C84.1427 26.293 84.2762 26.3434 84.3673 26.4443C84.4585 26.5452 84.5041 26.6689 84.5041 26.8154C84.5041 26.9554 84.4585 27.0758 84.3673 27.1768C84.2762 27.2744 84.1427 27.3232 83.9669 27.3232C83.7944 27.3232 83.6626 27.2744 83.5714 27.1768C83.4803 27.0758 83.4347 26.9554 83.4347 26.8154ZM89.1281 32.2793V28.2168H90.0363V33.5H89.172L89.1281 32.2793ZM89.299 31.166L89.675 31.1562C89.675 31.5078 89.6375 31.8333 89.5627 32.1328C89.491 32.429 89.3739 32.6862 89.2111 32.9043C89.0483 33.1224 88.8351 33.2933 88.5714 33.417C88.3078 33.5374 87.9871 33.5977 87.6095 33.5977C87.3524 33.5977 87.1164 33.5602 86.9015 33.4854C86.6899 33.4105 86.5076 33.2949 86.3546 33.1387C86.2016 32.9824 86.0828 32.779 85.9982 32.5283C85.9168 32.2777 85.8761 31.9766 85.8761 31.625V28.2168H86.7794V31.6348C86.7794 31.8724 86.8055 32.0693 86.8576 32.2256C86.9129 32.3786 86.9862 32.5007 87.0773 32.5918C87.1717 32.6797 87.2759 32.7415 87.3898 32.7773C87.507 32.8132 87.6274 32.8311 87.7511 32.8311C88.1352 32.8311 88.4396 32.7578 88.6642 32.6113C88.8888 32.4616 89.05 32.2614 89.1476 32.0107C89.2485 31.7568 89.299 31.4753 89.299 31.166ZM94.7433 32.4746V26H95.6515V33.5H94.8214L94.7433 32.4746ZM91.1886 30.917V30.8145C91.1886 30.4108 91.2375 30.0446 91.3351 29.7158C91.436 29.3838 91.5776 29.099 91.7599 28.8613C91.9455 28.6237 92.1652 28.4414 92.4191 28.3145C92.6763 28.1842 92.9627 28.1191 93.2785 28.1191C93.6105 28.1191 93.9002 28.1777 94.1476 28.2949C94.3983 28.4089 94.6099 28.5765 94.7824 28.7979C94.9582 29.016 95.0965 29.2796 95.1974 29.5889C95.2983 29.8981 95.3683 30.248 95.4074 30.6387V31.0879C95.3716 31.4753 95.3016 31.8236 95.1974 32.1328C95.0965 32.4421 94.9582 32.7057 94.7824 32.9238C94.6099 33.1419 94.3983 33.3096 94.1476 33.4268C93.897 33.5407 93.604 33.5977 93.2687 33.5977C92.9595 33.5977 92.6763 33.5309 92.4191 33.3975C92.1652 33.264 91.9455 33.0768 91.7599 32.8359C91.5776 32.5951 91.436 32.3118 91.3351 31.9863C91.2375 31.6576 91.1886 31.3011 91.1886 30.917ZM92.0968 30.8145V30.917C92.0968 31.1807 92.1229 31.4281 92.175 31.6592C92.2303 31.8903 92.3149 32.0938 92.4289 32.2695C92.5428 32.4453 92.6877 32.5837 92.8634 32.6846C93.0392 32.7822 93.2492 32.8311 93.4933 32.8311C93.7928 32.8311 94.0386 32.7676 94.2306 32.6406C94.4259 32.5137 94.5822 32.346 94.6994 32.1377C94.8166 31.9294 94.9077 31.7031 94.9728 31.459V30.2822C94.9337 30.1032 94.8768 29.9307 94.8019 29.7646C94.7303 29.5954 94.6359 29.4456 94.5187 29.3154C94.4048 29.182 94.2632 29.0762 94.0939 28.998C93.9279 28.9199 93.7309 28.8809 93.5031 28.8809C93.2557 28.8809 93.0425 28.9329 92.8634 29.0371C92.6877 29.138 92.5428 29.278 92.4289 29.457C92.3149 29.6328 92.2303 29.8379 92.175 30.0723C92.1229 30.3034 92.0968 30.5508 92.0968 30.8145Z" fill="#3F3F3F"/>
</svg>
